<svg width="180" height="45" xmlns="http://www.w3.org/2000/svg" stroke-miterlimit="10" stroke-linecap="square" fill="none" version="1.1">
 <clipPath id="p.0">
  <path id="svg_1" clip-rule="nonzero" d="m0,0l960,0l0,540l-960,0l0,-540z"/>
 </clipPath>

 <g>
  <title>Layer 1</title>
  <g id="svg_2" clip-path="url(#p.0)" stroke="null">
   <path id="svg_3" fill-rule="evenodd" d="m-157.5,-118.5l495,0l0,282l-495,0l0,-282z" fill="#ffffff" stroke="null"/>
   <path id="svg_4" fill-rule="evenodd" d="m134.07578,22.5l0,0c0,-11.76371 9.86671,-21.30009 22.0379,-21.30009l0,0c5.84481,0 11.45025,2.24411 15.58315,6.23865c4.1329,3.99454 6.45475,9.41229 6.45475,15.06144l0,0c0,11.76371 -9.86671,21.3001 -22.03791,21.3001l0,0c-12.17119,0 -22.0379,-9.53639 -22.0379,-21.3001l0.00001,0z" fill="#b2ab8c" stroke="null"/>
   <path id="svg_5" fill-rule="evenodd" d="m134.07578,22.5l0,0c0,-11.76371 9.86671,-21.30009 22.0379,-21.30009l0,0c5.84481,0 11.45025,2.24411 15.58315,6.23865c4.1329,3.99454 6.45475,9.41229 6.45475,15.06144l0,0c0,11.76371 -9.86671,21.3001 -22.03791,21.3001l0,0c-12.17119,0 -22.0379,-9.53639 -22.0379,-21.3001l0.00001,0z" stroke-linejoin="round" stroke="#b2ab8c"/>
   <path id="svg_6" fill-rule="evenodd" d="m1.84843,22.5l0,0c0,-11.76371 9.86671,-21.30009 22.0379,-21.30009l0,0c5.84481,0 11.45023,2.24411 15.58313,6.23865c4.13292,3.99454 6.45476,9.41229 6.45476,15.06144l0,0c0,11.76371 -9.8667,21.3001 -22.03789,21.3001l0,0c-12.17119,0 -22.0379,-9.53639 -22.0379,-21.3001z" fill="#293b5f" stroke="null"/>
   <path id="svg_7" fill-rule="evenodd" d="m1.84843,22.5l0,0c0,-11.76371 9.86671,-21.30009 22.0379,-21.30009l0,0c5.84481,0 11.45023,2.24411 15.58313,6.23865c4.13292,3.99454 6.45476,9.41229 6.45476,15.06144l0,0c0,11.76371 -9.8667,21.3001 -22.03789,21.3001l0,0c-12.17119,0 -22.0379,-9.53639 -22.0379,-21.3001z" stroke-linejoin="round" stroke="#293b5f"/>
   <path id="svg_8" fill-rule="evenodd" d="m45.92421,1.19991l44.07579,0l0,42.60018l-44.07579,0l0,-42.60018z" fill="#47597e" stroke="null"/>
   <path id="svg_9" fill-rule="evenodd" d="m45.92421,1.19991l44.07579,0l0,42.60018l-44.07579,0l0,-42.60018z" stroke-linejoin="round" stroke="#47597e"/>
   <path id="svg_10" fill-rule="evenodd" d="m90,1.19991l44.07577,0l0,42.60018l-44.07577,0l0,-42.60018z" fill="#dbe6fd" stroke="null"/>
   <path id="svg_11" fill-rule="evenodd" d="m90,1.19991l44.07577,0l0,42.60018l-44.07577,0l0,-42.60018z" stroke-linejoin="round" stroke="#dbe6fd"/>
   <path id="svg_12" fill-rule="evenodd" d="m134.07578,1.19991l21.81056,0l0,42.60018l-21.81056,0l0,-42.60018z" fill="#b2ab8c" stroke="null"/>
   <path id="svg_13" fill-rule="evenodd" d="m134.07578,1.19991l21.81056,0l0,42.60018l-21.81056,0l0,-42.60018z" stroke-linejoin="round" stroke="#b2ab8c"/>
   <path id="svg_14" fill-rule="evenodd" d="m24.11367,1.19991l21.81054,0l0,42.60018l-21.81054,0l0,-42.60018z" fill="#293b5f" stroke="null"/>
   <path id="svg_15" fill-rule="evenodd" d="m24.11367,1.19991l21.81054,0l0,42.60018l-21.81054,0l0,-42.60018z" stroke-linejoin="round" stroke="#293b5f"/>
  </g>
 </g>
</svg>