<?xml version="1.0" standalone="no"?>
<!DOCTYPE svg PUBLIC "-//W3C//DTD SVG 20010904//EN"
 "http://www.w3.org/TR/2001/REC-SVG-20010904/DTD/svg10.dtd">
<svg version="1.0" xmlns="http://www.w3.org/2000/svg"
 width="200.000000pt" height="44.000000pt" viewBox="0 0 200.000000 44.000000"
 preserveAspectRatio="xMidYMid meet">

<g transform="translate(0.000000,44.000000) scale(0.100000,-0.100000)"
fill="#000000" stroke="none">
<path d="M0 220 l0 -220 1000 0 1000 0 0 220 0 220 -1000 0 -1000 0 0 -220z
m150 120 l0 -70 70 0 70 0 0 70 0 70 40 0 40 0 0 -190 0 -190 -40 0 -40 0 0
85 0 85 -70 0 -70 0 0 -85 0 -85 -40 0 -40 0 0 190 0 190 40 0 40 0 0 -70z
m1370 35 c0 -33 -2 -35 -35 -35 -33 0 -35 2 -35 35 0 33 2 35 35 35 33 0 35
-2 35 -35z m410 -160 l0 -185 -40 0 -40 0 0 125 0 125 -40 0 c-36 0 -40 3 -40
25 0 20 6 25 36 31 26 5 41 15 53 35 11 21 24 29 44 29 l27 0 0 -185z m-915
91 c18 -8 38 -23 43 -33 6 -10 12 -69 14 -131 l3 -112 -37 0 c-27 0 -38 4 -38
15 0 12 -7 11 -40 -6 -63 -33 -119 -11 -135 52 -14 56 40 109 111 109 35 0 54
11 54 30 0 10 -9 22 -20 25 -27 9 -60 -3 -60 -21 0 -10 -12 -14 -41 -14 -37 0
-40 2 -33 23 20 68 99 96 179 63z m324 -1 c16 -8 31 -22 35 -30 3 -9 6 -68 6
-131 l0 -114 -35 0 -35 0 0 99 c0 77 -4 103 -16 115 -20 21 -43 20 -66 -1 -15
-13 -18 -32 -18 -115 l0 -98 -40 0 -40 0 0 140 0 140 35 0 c26 0 35 -4 35 -17
0 -14 2 -15 18 -1 35 31 78 36 121 13z m-835 -66 c9 -39 16 -78 16 -85 0 -8 4
-14 8 -14 5 0 15 33 22 73 17 97 17 97 59 97 l37 0 19 -97 19 -98 18 85 c11
47 21 91 23 98 3 6 20 12 41 12 33 0 36 -2 31 -22 -4 -13 -21 -76 -39 -141
l-33 -117 -37 0 c-41 0 -41 -1 -69 135 l-12 60 -19 -85 c-27 -118 -23 -112
-65 -108 l-38 3 -32 115 c-18 63 -35 125 -38 138 -5 20 -2 22 34 22 l39 0 16
-71z m1016 -69 l0 -140 -35 0 -35 0 0 140 0 140 35 0 35 0 0 -140z m200 5 l0
-35 -75 0 -75 0 0 35 0 35 75 0 75 0 0 -35z"/>
<path d="M930 151 c-30 -8 -41 -55 -15 -65 28 -10 70 16 73 47 4 29 -7 32 -58
18z"/>
</g>
</svg>
